Coordinates

Units are S.I. units (second, meters, Newtons, ...)
If the header above contains a line with 'inDegrees', this indicates whether rotational values are in degrees (yes) or radians (no).

inDegrees=no
nColumns=21
nRows=10
DataType=double
version=3
OpenSimVersion=4.6-2026-03-31-d6972f9e6
endheader
time	/jointset/ground_pelvis/pelvis_tilt/value	/jointset/ground_pelvis/pelvis_list/value	/jointset/ground_pelvis/pelvis_rotation/value	/jointset/ground_pelvis/pelvis_tx/value	/jointset/ground_pelvis/pelvis_ty/value	/jointset/ground_pelvis/pelvis_tz/value	/jointset/hip_r/hip_flexion_r/value	/jointset/hip_r/hip_adduction_r/value	/jointset/hip_r/hip_rotation_r/value	/jointset/walker_knee_r/knee_angle_r/value	/jointset/patellofemoral_r/knee_angle_r_beta/value	/jointset/ankle_r/ankle_angle_r/value	/jointset/subtalar_r/subtalar_angle_r/value	/jointset/hip_l/hip_flexion_l/value	/jointset/hip_l/hip_adduction_l/value	/jointset/hip_l/hip_rotation_l/value	/jointset/walker_knee_l/knee_angle_l/value	/jointset/patellofemoral_l/knee_angle_l_beta/value	/jointset/ankle_l/ankle_angle_l/value	/jointset/subtalar_l/subtalar_angle_l/value
144.996	-0.1449216721074938	-0.008335744730881837	-0.1762037335358246	0.6652074446214203	1.010010442313209	-0.2134971801930587	0.5798683118645079	0.04482722947421029	0.062339029754439	0.3668775533927625	0.3668775537535219	-0.1233821609405868	0.1148050488228553	-0.1625300856880076	-0.002018609095289817	-0.1698234711557755	0.8730826841668951	0.8730826838041273	-0.5074457352929124	-0.3403877431300848
145	-0.1377191223905103	-0.009384867182281577	-0.1780227801515579	0.6652271204272875	1.007543037939007	-0.2130751859135001	0.5737609284115534	0.04495736025216673	0.05936392531693792	0.3935427617180018	0.3935427619569152	-0.1017039960715518	0.1097876734465153	-0.1617799251163764	-0.005611124973671478	-0.1728111749262626	0.9083441409021846	0.9083441406136856	-0.5115795038436601	-0.3460487460858423
145.004	-0.1307723781152809	-0.01099404190081617	-0.1797640623170131	0.6652120274951648	1.004970514470934	-0.212686522860728	0.5677632708782897	0.04561372621913447	0.05621810724531707	0.4210807684003111	0.4210807685305449	-0.07781757572897768	0.1044420850139921	-0.1604232026565001	-0.01013521673719727	-0.1760498706610073	0.9439185958042076	0.9439185956317122	-0.51634423978751	-0.3515400450699318
145.008	-0.1242132439513567	-0.01314719301377697	-0.1814250477120518	0.6651538629768923	1.002299057891848	-0.2123327004776648	0.5619801091091553	0.04680558009205388	0.05296364275383907	0.4492221158782734	0.4492221159190409	-0.05198616687058391	0.09895024417864344	-0.1582986855945328	-0.01558076572361804	-0.1794396700473441	0.9797372085585483	0.9797372085385183	-0.5217269614364688	-0.3569100090225151
145.012	-0.1181658339725896	-0.01581923349476126	-0.1830010741747609	0.6650440262480281	0.9995371831157926	-0.2120152442309231	0.5565147492711595	0.048529132723378	0.04966020865115771	0.4777145117457523	0.477714511721471	-0.02453017421550216	0.09346371221633125	-0.155246712885398	-0.02192128856850767	-0.182870064897088	1.015727986651613	1.015727986813225	-0.5276764314839133	-0.3621804708817914
145.016	-0.1127416246133335	-0.0189756880871787	-0.184485127877545	0.6648740037987717	0.9966959123100234	-0.211735715938765	0.551462369630935	0.0507659140004351	0.04636367493090758	0.5063235775600388	0.5063235774987901	0.00418648128081139	0.0881055555292888	-0.1511155675141187	-0.02911254733216921	-0.1862227000246508	1.051813830331106	1.051813830694731	-0.5341038569094129	-0.367344561150492
145.02	-0.108034847061466	-0.02257257739402391	-0.1858676923399833	0.6646357462685224	0.9937888517209694	-0.2114957118525885	0.5469034304559872	0.05348164547357798	0.04312496429922088	0.5348327548215283	0.5348327547528002	0.03377128562444753	0.08297316572624923	-0.1457676752759317	-0.03709170432521758	-0.1893745642244075	1.087910937376958	1.087910937953184	-0.5408849012908593	-0.3723661552994366
145.024	-0.1041184860497061	-0.02655660993237163	-0.187136694011022	0.6643220190548619	0.990832156087474	-0.2112968375237864	0.5428975914610432	0.0566257469384281	0.03998916867143689	0.5630425667389989	0.5630425666908825	0.06381866979963043	0.07814166586210415	-0.1390853188523312	-0.04577712571330349	-0.1922015107697408	1.123927660027542	1.12392766081683	-0.5478629793087531	-0.3771809364555195
145.028	-0.1010411625817956	-0.03086564662411827	-0.1882775532858836	0.6639267091429983	0.9878443711323058	-0.2111406640153791	0.5394786120795982	0.0601314846075847	0.03699487553014038	0.5907694862001838	0.590769486196454	0.09392551950994714	0.07366772785298872	-0.130975515106327	-0.05506882823919789	-0.1945819341864573	1.159763886697998	1.159763887690991	-0.554853776857429	-0.3816990183364646
145.032	-0.0988250665176537	-0.03542942243790965	-0.189273350776634	0.6634450748074934	0.9848461580765997	-0.211028668416338	0.5366505533993583	0.06391677646834434	0.03417370528159709	0.6178446182466624	0.6178446183043436	0.1237059812504672	0.06959352759319587	-0.1213738343379366	-0.06484956527533534	-0.1964004383900069	1.195310972343743	1.195310973522156	-0.5616508800116443	-0.3858089691948325
